<svg width="750" height="460" viewBox="0 0 750 460" xmlns="http://www.w3.org/2000/svg">
  <rect width="100%" height="100%" fill="#0f172a" rx="10"/>
  <text x="30" y="35" fill="#f8fafc" font-family="system-ui, sans-serif" font-size="18" font-weight="bold">Optimizaciones de Consultas (OLTP) - Escala Logarítmica</text>
  <text x="205" y="85" fill="#cbd5e1" font-family="system-ui, sans-serif" font-size="12" font-weight="600" text-anchor="end">OPT-1 (JOIN vs Subquery)</text>
  <rect x="220" y="60" width="377.58" height="25" fill="#f87171" rx="4"/>
  <text x="605.5805828253524" y="77" fill="#fca5a5" font-family="system-ui, sans-serif" font-size="11" font-weight="600">1855.95 ms</text>
  <rect x="220" y="89" width="257.92" height="25" fill="#34d399" rx="4"/>
  <text x="485.9211585729116" y="106" fill="#a7f3d0" font-family="system-ui, sans-serif" font-size="11" font-weight="600">39.710 ms (46.7x speedup)</text>
  <text x="205" y="180" fill="#cbd5e1" font-family="system-ui, sans-serif" font-size="12" font-weight="600" text-anchor="end">OPT-2 (Sargable Range)</text>
  <rect x="220" y="155" width="359.04" height="25" fill="#f87171" rx="4"/>
  <text x="587.0407828345133" y="172" fill="#fca5a5" font-family="system-ui, sans-serif" font-size="11" font-weight="600">1022.99 ms</text>
  <rect x="220" y="184" width="338.87" height="25" fill="#34d399" rx="4"/>
  <text x="566.8682630682392" y="201" fill="#a7f3d0" font-family="system-ui, sans-serif" font-size="11" font-weight="600">535.050 ms (1.9x speedup)</text>
  <text x="205" y="275" fill="#cbd5e1" font-family="system-ui, sans-serif" font-size="12" font-weight="600" text-anchor="end">OPT-3 (NOT EXISTS vs NOT IN)</text>
  <rect x="220" y="250" width="394.49" height="25" fill="#f87171" rx="4"/>
  <text x="622.4933124835935" y="267" fill="#fca5a5" font-family="system-ui, sans-serif" font-size="11" font-weight="600">3195.64 ms</text>
  <rect x="220" y="279" width="254.36" height="25" fill="#34d399" rx="4"/>
  <text x="482.36281324120733" y="296" fill="#a7f3d0" font-family="system-ui, sans-serif" font-size="11" font-weight="600">35.420 ms (90.2x speedup)</text>
  <text x="205" y="370" fill="#cbd5e1" font-family="system-ui, sans-serif" font-size="12" font-weight="600" text-anchor="end">OPT-4 (Keyset vs OFFSET)</text>
  <rect x="220" y="345" width="319.81" height="25" fill="#f87171" rx="4"/>
  <text x="547.8127017382021" y="362" fill="#fca5a5" font-family="system-ui, sans-serif" font-size="11" font-weight="600">290.07 ms</text>
  <rect x="220" y="374" width="66.61" height="25" fill="#34d399" rx="4"/>
  <text x="294.60835634285763" y="391" fill="#a7f3d0" font-family="system-ui, sans-serif" font-size="11" font-weight="600">0.085 ms (3,412x speedup)</text>
  <circle cx="500" cy="30" r="6" fill="#f87171"/>
  <text x="512" y="34" fill="#cbd5e1" font-family="system-ui, sans-serif" font-size="12">Antes (Línea Base)</text>
  <circle cx="630" cy="30" r="6" fill="#34d399"/>
  <text x="642" y="34" fill="#cbd5e1" font-family="system-ui, sans-serif" font-size="12">Optimizado</text>
</svg>